<?xml version="1.0" encoding="UTF-8" standalone="yes"?><svg xmlns="http://www.w3.org/2000/svg" xmlns:xlink="http://www.w3.org/1999/xlink" height="1101px" style="width:1837px;height:1101px;" version="1.1" viewBox="0 0 1837 1101" width="1837px"><defs><filter height="300%" id="f1" width="300%" x="-1" y="-1"><feGaussianBlur result="blurOut" stdDeviation="2.0"/><feColorMatrix in="blurOut" result="blurOut2" type="matrix" values="0 0 0 0 0 0 0 0 0 0 0 0 0 0 0 0 0 0 .4 0"/><feOffset dx="4.0" dy="4.0" in="blurOut2" result="blurOut3"/><feBlend in="SourceGraphic" in2="blurOut3" mode="normal"/></filter></defs><g><rect fill="#FEFECE" filter="url(#f1)" height="73.6094" style="stroke: #A80036; stroke-width: 1.5;" width="192" x="1409" y="872"/><ellipse cx="1454.25" cy="888" fill="#ADD1B2" rx="11" ry="11" style="stroke: #A80036; stroke-width: 1.0;"/><path d="M1457.2188,893.6406 Q1456.6406,893.9375 1456,894.0859 Q1455.3594,894.2344 1454.6563,894.2344 Q1452.1563,894.2344 1450.8359,892.5859 Q1449.5156,890.9375 1449.5156,887.8125 Q1449.5156,884.6875 1450.8359,883.0313 Q1452.1563,881.375 1454.6563,881.375 Q1455.3594,881.375 1456.0078,881.5313 Q1456.6563,881.6875 1457.2188,881.9844 L1457.2188,884.7031 Q1456.5938,884.125 1456,883.8516 Q1455.4063,883.5781 1454.7813,883.5781 Q1453.4375,883.5781 1452.75,884.6484 Q1452.0625,885.7188 1452.0625,887.8125 Q1452.0625,889.9063 1452.75,890.9766 Q1453.4375,892.0469 1454.7813,892.0469 Q1455.4063,892.0469 1456,891.7734 Q1456.5938,891.5 1457.2188,890.9219 L1457.2188,893.6406 Z "/><text fill="#000000" font-family="sans-serif" font-size="12" lengthAdjust="spacingAndGlyphs" textLength="93" x="1474.75" y="892.1543">BWClassParser</text><line style="stroke: #A80036; stroke-width: 1.5;" x1="1410" x2="1600" y1="904" y2="904"/><line style="stroke: #A80036; stroke-width: 1.5;" x1="1410" x2="1600" y1="912" y2="912"/><ellipse cx="1420" cy="923.9023" fill="#84BE84" rx="3" ry="3" style="stroke: #038048; stroke-width: 1.0;"/><text fill="#000000" font-family="sans-serif" font-size="11" lengthAdjust="spacingAndGlyphs" textLength="166" x="1429" y="926.2104">parse(String[], int) : BWClass</text><ellipse cx="1420" cy="936.707" fill="#84BE84" rx="3" ry="3" style="stroke: #038048; stroke-width: 1.0;"/><text fill="#000000" font-family="sans-serif" font-size="11" lengthAdjust="spacingAndGlyphs" textLength="73" x="1429" y="939.0151">getEnd() : int</text><rect fill="#FEFECE" filter="url(#f1)" height="48" style="stroke: #A80036; stroke-width: 1.5;" width="84" x="1463.5" y="1025"/><ellipse cx="1478.5" cy="1041" fill="#ADD1B2" rx="11" ry="11" style="stroke: #A80036; stroke-width: 1.0;"/><path d="M1481.4688,1046.6406 Q1480.8906,1046.9375 1480.25,1047.0859 Q1479.6094,1047.2344 1478.9063,1047.2344 Q1476.4063,1047.2344 1475.0859,1045.5859 Q1473.7656,1043.9375 1473.7656,1040.8125 Q1473.7656,1037.6875 1475.0859,1036.0313 Q1476.4063,1034.375 1478.9063,1034.375 Q1479.6094,1034.375 1480.2578,1034.5313 Q1480.9063,1034.6875 1481.4688,1034.9844 L1481.4688,1037.7031 Q1480.8438,1037.125 1480.25,1036.8516 Q1479.6563,1036.5781 1479.0313,1036.5781 Q1477.6875,1036.5781 1477,1037.6484 Q1476.3125,1038.7188 1476.3125,1040.8125 Q1476.3125,1042.9063 1477,1043.9766 Q1477.6875,1045.0469 1479.0313,1045.0469 Q1479.6563,1045.0469 1480.25,1044.7734 Q1480.8438,1044.5 1481.4688,1043.9219 L1481.4688,1046.6406 Z "/><text fill="#000000" font-family="sans-serif" font-size="12" lengthAdjust="spacingAndGlyphs" textLength="52" x="1492.5" y="1045.1543">BWClass</text><line style="stroke: #A80036; stroke-width: 1.5;" x1="1464.5" x2="1546.5" y1="1057" y2="1057"/><line style="stroke: #A80036; stroke-width: 1.5;" x1="1464.5" x2="1546.5" y1="1065" y2="1065"/><rect fill="#FEFECE" filter="url(#f1)" height="86.4141" style="stroke: #A80036; stroke-width: 1.5;" width="136" x="873" y="1006"/><ellipse cx="916.35" cy="1022" fill="#ADD1B2" rx="11" ry="11" style="stroke: #A80036; stroke-width: 1.0;"/><path d="M919.3188,1027.6406 Q918.7406,1027.9375 918.1,1028.0859 Q917.4594,1028.2344 916.7563,1028.2344 Q914.2563,1028.2344 912.9359,1026.5859 Q911.6156,1024.9375 911.6156,1021.8125 Q911.6156,1018.6875 912.9359,1017.0313 Q914.2563,1015.375 916.7563,1015.375 Q917.4594,1015.375 918.1078,1015.5313 Q918.7563,1015.6875 919.3188,1015.9844 L919.3188,1018.7031 Q918.6938,1018.125 918.1,1017.8516 Q917.5063,1017.5781 916.8813,1017.5781 Q915.5375,1017.5781 914.85,1018.6484 Q914.1625,1019.7188 914.1625,1021.8125 Q914.1625,1023.9063 914.85,1024.9766 Q915.5375,1026.0469 916.8813,1026.0469 Q917.5063,1026.0469 918.1,1025.7734 Q918.6938,1025.5 919.3188,1024.9219 L919.3188,1027.6406 Z "/><text fill="#000000" font-family="sans-serif" font-size="12" lengthAdjust="spacingAndGlyphs" textLength="41" x="936.65" y="1026.1543">Parser</text><line style="stroke: #A80036; stroke-width: 1.5;" x1="874" x2="1008" y1="1038" y2="1038"/><rect fill="none" height="6" style="stroke: #C82930; stroke-width: 1.0;" width="6" x="881" y="1046.9023"/><text fill="#000000" font-family="sans-serif" font-size="11" lengthAdjust="spacingAndGlyphs" textLength="48" x="893" y="1052.2104">file : File</text><rect fill="none" height="6" style="stroke: #C82930; stroke-width: 1.0;" width="6" x="881" y="1059.707"/><text fill="#000000" font-family="sans-serif" font-size="11" lengthAdjust="spacingAndGlyphs" textLength="110" x="893" y="1065.0151">program : Program</text><line style="stroke: #A80036; stroke-width: 1.5;" x1="874" x2="1008" y1="1071.6094" y2="1071.6094"/><ellipse cx="884" cy="1083.5117" fill="#84BE84" rx="3" ry="3" style="stroke: #038048; stroke-width: 1.0;"/><text fill="#000000" font-family="sans-serif" font-size="11" lengthAdjust="spacingAndGlyphs" textLength="41" x="893" y="1085.8198">parse()</text><rect fill="#FEFECE" filter="url(#f1)" height="73.6094" style="stroke: #A80036; stroke-width: 1.5;" width="223" x="1228.75" y="732"/><ellipse cx="1279" cy="748" fill="#ADD1B2" rx="11" ry="11" style="stroke: #A80036; stroke-width: 1.0;"/><path d="M1281.9688,753.6406 Q1281.3906,753.9375 1280.75,754.0859 Q1280.1094,754.2344 1279.4063,754.2344 Q1276.9063,754.2344 1275.5859,752.5859 Q1274.2656,750.9375 1274.2656,747.8125 Q1274.2656,744.6875 1275.5859,743.0313 Q1276.9063,741.375 1279.4063,741.375 Q1280.1094,741.375 1280.7578,741.5313 Q1281.4063,741.6875 1281.9688,741.9844 L1281.9688,744.7031 Q1281.3438,744.125 1280.75,743.8516 Q1280.1563,743.5781 1279.5313,743.5781 Q1278.1875,743.5781 1277.5,744.6484 Q1276.8125,745.7188 1276.8125,747.8125 Q1276.8125,749.9063 1277.5,750.9766 Q1278.1875,752.0469 1279.5313,752.0469 Q1280.1563,752.0469 1280.75,751.7734 Q1281.3438,751.5 1281.9688,750.9219 L1281.9688,753.6406 Z "/><text fill="#000000" font-family="sans-serif" font-size="12" lengthAdjust="spacingAndGlyphs" textLength="114" x="1299.5" y="752.1543">BWFunctionParser</text><line style="stroke: #A80036; stroke-width: 1.5;" x1="1229.75" x2="1450.75" y1="764" y2="764"/><line style="stroke: #A80036; stroke-width: 1.5;" x1="1229.75" x2="1450.75" y1="772" y2="772"/><ellipse cx="1239.75" cy="783.9023" fill="#84BE84" rx="3" ry="3" style="stroke: #038048; stroke-width: 1.0;"/><text fill="#000000" font-family="sans-serif" font-size="11" lengthAdjust="spacingAndGlyphs" textLength="181" x="1248.75" y="786.2104">parse(String[], int) : BWFunction</text><ellipse cx="1239.75" cy="796.707" fill="#84BE84" rx="3" ry="3" style="stroke: #038048; stroke-width: 1.0;"/><text fill="#000000" font-family="sans-serif" font-size="11" lengthAdjust="spacingAndGlyphs" textLength="197" x="1248.75" y="799.0151">getEndOfFunction(String[], int) : int</text><rect fill="#FEFECE" filter="url(#f1)" height="48" style="stroke: #A80036; stroke-width: 1.5;" width="105" x="1268.75" y="885"/><ellipse cx="1283.75" cy="901" fill="#ADD1B2" rx="11" ry="11" style="stroke: #A80036; stroke-width: 1.0;"/><path d="M1286.7188,906.6406 Q1286.1406,906.9375 1285.5,907.0859 Q1284.8594,907.2344 1284.1563,907.2344 Q1281.6563,907.2344 1280.3359,905.5859 Q1279.0156,903.9375 1279.0156,900.8125 Q1279.0156,897.6875 1280.3359,896.0313 Q1281.6563,894.375 1284.1563,894.375 Q1284.8594,894.375 1285.5078,894.5313 Q1286.1563,894.6875 1286.7188,894.9844 L1286.7188,897.7031 Q1286.0938,897.125 1285.5,896.8516 Q1284.9063,896.5781 1284.2813,896.5781 Q1282.9375,896.5781 1282.25,897.6484 Q1281.5625,898.7188 1281.5625,900.8125 Q1281.5625,902.9063 1282.25,903.9766 Q1282.9375,905.0469 1284.2813,905.0469 Q1284.9063,905.0469 1285.5,904.7734 Q1286.0938,904.5 1286.7188,903.9219 L1286.7188,906.6406 Z "/><text fill="#000000" font-family="sans-serif" font-size="12" lengthAdjust="spacingAndGlyphs" textLength="73" x="1297.75" y="905.1543">BWFunction</text><line style="stroke: #A80036; stroke-width: 1.5;" x1="1269.75" x2="1372.75" y1="917" y2="917"/><line style="stroke: #A80036; stroke-width: 1.5;" x1="1269.75" x2="1372.75" y1="925" y2="925"/><rect fill="#FEFECE" filter="url(#f1)" height="60.8047" style="stroke: #A80036; stroke-width: 1.5;" width="197" x="539.75" y="123.5"/><ellipse cx="579.5" cy="139.5" fill="#ADD1B2" rx="11" ry="11" style="stroke: #A80036; stroke-width: 1.0;"/><path d="M582.4688,145.1406 Q581.8906,145.4375 581.25,145.5859 Q580.6094,145.7344 579.9063,145.7344 Q577.4063,145.7344 576.0859,144.0859 Q574.7656,142.4375 574.7656,139.3125 Q574.7656,136.1875 576.0859,134.5313 Q577.4063,132.875 579.9063,132.875 Q580.6094,132.875 581.2578,133.0313 Q581.9063,133.1875 582.4688,133.4844 L582.4688,136.2031 Q581.8438,135.625 581.25,135.3516 Q580.6563,135.0781 580.0313,135.0781 Q578.6875,135.0781 578,136.1484 Q577.3125,137.2188 577.3125,139.3125 Q577.3125,141.4063 578,142.4766 Q578.6875,143.5469 580.0313,143.5469 Q580.6563,143.5469 581.25,143.2734 Q581.8438,143 582.4688,142.4219 L582.4688,145.1406 Z "/><text fill="#000000" font-family="sans-serif" font-size="12" lengthAdjust="spacingAndGlyphs" textLength="110" x="599" y="143.6543">CalculationParser</text><line style="stroke: #A80036; stroke-width: 1.5;" x1="540.75" x2="735.75" y1="155.5" y2="155.5"/><line style="stroke: #A80036; stroke-width: 1.5;" x1="540.75" x2="735.75" y1="163.5" y2="163.5"/><ellipse cx="550.75" cy="175.4023" fill="#84BE84" rx="3" ry="3" style="stroke: #038048; stroke-width: 1.0;"/><text fill="#000000" font-family="sans-serif" font-size="11" lengthAdjust="spacingAndGlyphs" textLength="171" x="559.75" y="177.7104">parse(String, int) : Calculation</text><rect fill="#FEFECE" filter="url(#f1)" height="48" style="stroke: #A80036; stroke-width: 1.5;" width="101" x="587.75" y="367"/><ellipse cx="602.75" cy="383" fill="#ADD1B2" rx="11" ry="11" style="stroke: #A80036; stroke-width: 1.0;"/><path d="M605.7188,388.6406 Q605.1406,388.9375 604.5,389.0859 Q603.8594,389.2344 603.1563,389.2344 Q600.6563,389.2344 599.3359,387.5859 Q598.0156,385.9375 598.0156,382.8125 Q598.0156,379.6875 599.3359,378.0313 Q600.6563,376.375 603.1563,376.375 Q603.8594,376.375 604.5078,376.5313 Q605.1563,376.6875 605.7188,376.9844 L605.7188,379.7031 Q605.0938,379.125 604.5,378.8516 Q603.9063,378.5781 603.2813,378.5781 Q601.9375,378.5781 601.25,379.6484 Q600.5625,380.7188 600.5625,382.8125 Q600.5625,384.9063 601.25,385.9766 Q601.9375,387.0469 603.2813,387.0469 Q603.9063,387.0469 604.5,386.7734 Q605.0938,386.5 605.7188,385.9219 L605.7188,388.6406 Z "/><text fill="#000000" font-family="sans-serif" font-size="12" lengthAdjust="spacingAndGlyphs" textLength="69" x="616.75" y="387.1543">Calculation</text><line style="stroke: #A80036; stroke-width: 1.5;" x1="588.75" x2="687.75" y1="399" y2="399"/><line style="stroke: #A80036; stroke-width: 1.5;" x1="588.75" x2="687.75" y1="407" y2="407"/><rect fill="#FEFECE" filter="url(#f1)" height="60.8047" style="stroke: #A80036; stroke-width: 1.5;" width="215" x="786.75" y="360.5"/><ellipse cx="835.5" cy="376.5" fill="#ADD1B2" rx="11" ry="11" style="stroke: #A80036; stroke-width: 1.0;"/><path d="M838.4688,382.1406 Q837.8906,382.4375 837.25,382.5859 Q836.6094,382.7344 835.9063,382.7344 Q833.4063,382.7344 832.0859,381.0859 Q830.7656,379.4375 830.7656,376.3125 Q830.7656,373.1875 832.0859,371.5313 Q833.4063,369.875 835.9063,369.875 Q836.6094,369.875 837.2578,370.0313 Q837.9063,370.1875 838.4688,370.4844 L838.4688,373.2031 Q837.8438,372.625 837.25,372.3516 Q836.6563,372.0781 836.0313,372.0781 Q834.6875,372.0781 834,373.1484 Q833.3125,374.2188 833.3125,376.3125 Q833.3125,378.4063 834,379.4766 Q834.6875,380.5469 836.0313,380.5469 Q836.6563,380.5469 837.25,380.2734 Q837.8438,380 838.4688,379.4219 L838.4688,382.1406 Z "/><text fill="#000000" font-family="sans-serif" font-size="12" lengthAdjust="spacingAndGlyphs" textLength="109" x="856" y="380.6543">ExpressionParser</text><line style="stroke: #A80036; stroke-width: 1.5;" x1="787.75" x2="1000.75" y1="392.5" y2="392.5"/><line style="stroke: #A80036; stroke-width: 1.5;" x1="787.75" x2="1000.75" y1="400.5" y2="400.5"/><ellipse cx="797.75" cy="412.4023" fill="#84BE84" rx="3" ry="3" style="stroke: #038048; stroke-width: 1.0;"/><text fill="#000000" font-family="sans-serif" font-size="11" lengthAdjust="spacingAndGlyphs" textLength="189" x="806.75" y="414.7104">parse(Stirng, int) : BWExpression</text><rect fill="#FEFECE" filter="url(#f1)" height="86.4141" style="stroke: #A80036; stroke-width: 1.5;" width="199" x="994.75" y="726"/><ellipse cx="1040" cy="742" fill="#ADD1B2" rx="11" ry="11" style="stroke: #A80036; stroke-width: 1.0;"/><path d="M1042.9688,747.6406 Q1042.3906,747.9375 1041.75,748.0859 Q1041.1094,748.2344 1040.4063,748.2344 Q1037.9063,748.2344 1036.5859,746.5859 Q1035.2656,744.9375 1035.2656,741.8125 Q1035.2656,738.6875 1036.5859,737.0313 Q1037.9063,735.375 1040.4063,735.375 Q1041.1094,735.375 1041.7578,735.5313 Q1042.4063,735.6875 1042.9688,735.9844 L1042.9688,738.7031 Q1042.3438,738.125 1041.75,737.8516 Q1041.1563,737.5781 1040.5313,737.5781 Q1039.1875,737.5781 1038.5,738.6484 Q1037.8125,739.7188 1037.8125,741.8125 Q1037.8125,743.9063 1038.5,744.9766 Q1039.1875,746.0469 1040.5313,746.0469 Q1041.1563,746.0469 1041.75,745.7734 Q1042.3438,745.5 1042.9688,744.9219 L1042.9688,747.6406 Z "/><text fill="#000000" font-family="sans-serif" font-size="12" lengthAdjust="spacingAndGlyphs" textLength="100" x="1060.5" y="746.1543">ConditionParser</text><line style="stroke: #A80036; stroke-width: 1.5;" x1="995.75" x2="1192.75" y1="758" y2="758"/><line style="stroke: #A80036; stroke-width: 1.5;" x1="995.75" x2="1192.75" y1="766" y2="766"/><ellipse cx="1005.75" cy="777.9023" fill="#84BE84" rx="3" ry="3" style="stroke: #038048; stroke-width: 1.0;"/><text fill="#000000" font-family="sans-serif" font-size="11" lengthAdjust="spacingAndGlyphs" textLength="170" x="1014.75" y="780.2104">parse(String[], int) : Condition</text><ellipse cx="1005.75" cy="790.707" fill="#84BE84" rx="3" ry="3" style="stroke: #038048; stroke-width: 1.0;"/><text fill="#000000" font-family="sans-serif" font-size="11" lengthAdjust="spacingAndGlyphs" textLength="137" x="1014.75" y="793.0151">getEnd(String[], int) : int</text><rect fill="#F24D5C" height="6" style="stroke: #C82930; stroke-width: 1.0;" width="6" x="1002.75" y="800.5117"/><text fill="#000000" font-family="sans-serif" font-size="11" lengthAdjust="spacingAndGlyphs" textLength="173" x="1014.75" y="805.8198">getSeparator(String[], int) : int</text><rect fill="#FEFECE" filter="url(#f1)" height="48" style="stroke: #A80036; stroke-width: 1.5;" width="91" x="949.75" y="885"/><ellipse cx="964.75" cy="901" fill="#ADD1B2" rx="11" ry="11" style="stroke: #A80036; stroke-width: 1.0;"/><path d="M967.7188,906.6406 Q967.1406,906.9375 966.5,907.0859 Q965.8594,907.2344 965.1563,907.2344 Q962.6563,907.2344 961.3359,905.5859 Q960.0156,903.9375 960.0156,900.8125 Q960.0156,897.6875 961.3359,896.0313 Q962.6563,894.375 965.1563,894.375 Q965.8594,894.375 966.5078,894.5313 Q967.1563,894.6875 967.7188,894.9844 L967.7188,897.7031 Q967.0938,897.125 966.5,896.8516 Q965.9063,896.5781 965.2813,896.5781 Q963.9375,896.5781 963.25,897.6484 Q962.5625,898.7188 962.5625,900.8125 Q962.5625,902.9063 963.25,903.9766 Q963.9375,905.0469 965.2813,905.0469 Q965.9063,905.0469 966.5,904.7734 Q967.0938,904.5 967.7188,903.9219 L967.7188,906.6406 Z "/><text fill="#000000" font-family="sans-serif" font-size="12" lengthAdjust="spacingAndGlyphs" textLength="59" x="978.75" y="905.1543">Condition</text><line style="stroke: #A80036; stroke-width: 1.5;" x1="950.75" x2="1039.75" y1="917" y2="917"/><line style="stroke: #A80036; stroke-width: 1.5;" x1="950.75" x2="1039.75" y1="925" y2="925"/><rect fill="#FEFECE" filter="url(#f1)" height="60.8047" style="stroke: #A80036; stroke-width: 1.5;" width="155" x="1154.75" y="482.5"/><ellipse cx="1196.75" cy="498.5" fill="#ADD1B2" rx="11" ry="11" style="stroke: #A80036; stroke-width: 1.0;"/><path d="M1199.7188,504.1406 Q1199.1406,504.4375 1198.5,504.5859 Q1197.8594,504.7344 1197.1563,504.7344 Q1194.6563,504.7344 1193.3359,503.0859 Q1192.0156,501.4375 1192.0156,498.3125 Q1192.0156,495.1875 1193.3359,493.5313 Q1194.6563,491.875 1197.1563,491.875 Q1197.8594,491.875 1198.5078,492.0313 Q1199.1563,492.1875 1199.7188,492.4844 L1199.7188,495.2031 Q1199.0938,494.625 1198.5,494.3516 Q1197.9063,494.0781 1197.2813,494.0781 Q1195.9375,494.0781 1195.25,495.1484 Q1194.5625,496.2188 1194.5625,498.3125 Q1194.5625,500.4063 1195.25,501.4766 Q1195.9375,502.5469 1197.2813,502.5469 Q1197.9063,502.5469 1198.5,502.2734 Q1199.0938,502 1199.7188,501.4219 L1199.7188,504.1406 Z "/><text fill="#000000" font-family="sans-serif" font-size="12" lengthAdjust="spacingAndGlyphs" textLength="63" x="1216.75" y="502.6543">ExitParser</text><line style="stroke: #A80036; stroke-width: 1.5;" x1="1155.75" x2="1308.75" y1="514.5" y2="514.5"/><line style="stroke: #A80036; stroke-width: 1.5;" x1="1155.75" x2="1308.75" y1="522.5" y2="522.5"/><ellipse cx="1165.75" cy="534.4023" fill="#84BE84" rx="3" ry="3" style="stroke: #038048; stroke-width: 1.0;"/><text fill="#000000" font-family="sans-serif" font-size="11" lengthAdjust="spacingAndGlyphs" textLength="129" x="1174.75" y="536.7104">parse(String, int) : Exit</text><rect fill="#FEFECE" filter="url(#f1)" height="48" style="stroke: #A80036; stroke-width: 1.5;" width="54" x="1205" y="611"/><ellipse cx="1220" cy="627" fill="#ADD1B2" rx="11" ry="11" style="stroke: #A80036; stroke-width: 1.0;"/><path d="M1222.9688,632.6406 Q1222.3906,632.9375 1221.75,633.0859 Q1221.1094,633.2344 1220.4063,633.2344 Q1217.9063,633.2344 1216.5859,631.5859 Q1215.2656,629.9375 1215.2656,626.8125 Q1215.2656,623.6875 1216.5859,622.0313 Q1217.9063,620.375 1220.4063,620.375 Q1221.1094,620.375 1221.7578,620.5313 Q1222.4063,620.6875 1222.9688,620.9844 L1222.9688,623.7031 Q1222.3438,623.125 1221.75,622.8516 Q1221.1563,622.5781 1220.5313,622.5781 Q1219.1875,622.5781 1218.5,623.6484 Q1217.8125,624.7188 1217.8125,626.8125 Q1217.8125,628.9063 1218.5,629.9766 Q1219.1875,631.0469 1220.5313,631.0469 Q1221.1563,631.0469 1221.75,630.7734 Q1222.3438,630.5 1222.9688,629.9219 L1222.9688,632.6406 Z "/><text fill="#000000" font-family="sans-serif" font-size="12" lengthAdjust="spacingAndGlyphs" textLength="22" x="1234" y="631.1543">Exit</text><line style="stroke: #A80036; stroke-width: 1.5;" x1="1206" x2="1258" y1="643" y2="643"/><line style="stroke: #A80036; stroke-width: 1.5;" x1="1206" x2="1258" y1="651" y2="651"/><rect fill="#FEFECE" filter="url(#f1)" height="60.8047" style="stroke: #A80036; stroke-width: 1.5;" width="212" x="794.5" y="604.5"/><ellipse cx="842.25" cy="620.5" fill="#ADD1B2" rx="11" ry="11" style="stroke: #A80036; stroke-width: 1.0;"/><path d="M845.2188,626.1406 Q844.6406,626.4375 844,626.5859 Q843.3594,626.7344 842.6563,626.7344 Q840.1563,626.7344 838.8359,625.0859 Q837.5156,623.4375 837.5156,620.3125 Q837.5156,617.1875 838.8359,615.5313 Q840.1563,613.875 842.6563,613.875 Q843.3594,613.875 844.0078,614.0313 Q844.6563,614.1875 845.2188,614.4844 L845.2188,617.2031 Q844.5938,616.625 844,616.3516 Q843.4063,616.0781 842.7813,616.0781 Q841.4375,616.0781 840.75,617.1484 Q840.0625,618.2188 840.0625,620.3125 Q840.0625,622.4063 840.75,623.4766 Q841.4375,624.5469 842.7813,624.5469 Q843.4063,624.5469 844,624.2734 Q844.5938,624 845.2188,623.4219 L845.2188,626.1406 Z "/><text fill="#000000" font-family="sans-serif" font-size="12" lengthAdjust="spacingAndGlyphs" textLength="108" x="862.75" y="624.6543">InstructionParser</text><line style="stroke: #A80036; stroke-width: 1.5;" x1="795.5" x2="1005.5" y1="636.5" y2="636.5"/><line style="stroke: #A80036; stroke-width: 1.5;" x1="795.5" x2="1005.5" y1="644.5" y2="644.5"/><ellipse cx="805.5" cy="656.4023" fill="#84BE84" rx="3" ry="3" style="stroke: #038048; stroke-width: 1.0;"/><text fill="#000000" font-family="sans-serif" font-size="11" lengthAdjust="spacingAndGlyphs" textLength="186" x="814.5" y="658.7104">parse(String, int) : BWInstruction</text><rect fill="#FEFECE" filter="url(#f1)" height="48" style="stroke: #A80036; stroke-width: 1.5;" width="119" x="1487.75" y="489"/><ellipse cx="1502.75" cy="505" fill="#ADD1B2" rx="11" ry="11" style="stroke: #A80036; stroke-width: 1.0;"/><path d="M1505.7188,510.6406 Q1505.1406,510.9375 1504.5,511.0859 Q1503.8594,511.2344 1503.1563,511.2344 Q1500.6563,511.2344 1499.3359,509.5859 Q1498.0156,507.9375 1498.0156,504.8125 Q1498.0156,501.6875 1499.3359,500.0313 Q1500.6563,498.375 1503.1563,498.375 Q1503.8594,498.375 1504.5078,498.5313 Q1505.1563,498.6875 1505.7188,498.9844 L1505.7188,501.7031 Q1505.0938,501.125 1504.5,500.8516 Q1503.9063,500.5781 1503.2813,500.5781 Q1501.9375,500.5781 1501.25,501.6484 Q1500.5625,502.7188 1500.5625,504.8125 Q1500.5625,506.9063 1501.25,507.9766 Q1501.9375,509.0469 1503.2813,509.0469 Q1503.9063,509.0469 1504.5,508.7734 Q1505.0938,508.5 1505.7188,507.9219 L1505.7188,510.6406 Z "/><text fill="#000000" font-family="sans-serif" font-size="12" lengthAdjust="spacingAndGlyphs" textLength="87" x="1516.75" y="509.1543">BWExpression</text><line style="stroke: #A80036; stroke-width: 1.5;" x1="1488.75" x2="1605.75" y1="521" y2="521"/><line style="stroke: #A80036; stroke-width: 1.5;" x1="1488.75" x2="1605.75" y1="529" y2="529"/><rect fill="#FEFECE" filter="url(#f1)" height="73.6094" style="stroke: #A80036; stroke-width: 1.5;" width="170" x="557" y="732"/><ellipse cx="602.25" cy="748" fill="#ADD1B2" rx="11" ry="11" style="stroke: #A80036; stroke-width: 1.0;"/><path d="M605.2188,753.6406 Q604.6406,753.9375 604,754.0859 Q603.3594,754.2344 602.6563,754.2344 Q600.1563,754.2344 598.8359,752.5859 Q597.5156,750.9375 597.5156,747.8125 Q597.5156,744.6875 598.8359,743.0313 Q600.1563,741.375 602.6563,741.375 Q603.3594,741.375 604.0078,741.5313 Q604.6563,741.6875 605.2188,741.9844 L605.2188,744.7031 Q604.5938,744.125 604,743.8516 Q603.4063,743.5781 602.7813,743.5781 Q601.4375,743.5781 600.75,744.6484 Q600.0625,745.7188 600.0625,747.8125 Q600.0625,749.9063 600.75,750.9766 Q601.4375,752.0469 602.7813,752.0469 Q603.4063,752.0469 604,751.7734 Q604.5938,751.5 605.2188,750.9219 L605.2188,753.6406 Z "/><text fill="#000000" font-family="sans-serif" font-size="12" lengthAdjust="spacingAndGlyphs" textLength="71" x="622.75" y="752.1543">LoopParser</text><line style="stroke: #A80036; stroke-width: 1.5;" x1="558" x2="726" y1="764" y2="764"/><line style="stroke: #A80036; stroke-width: 1.5;" x1="558" x2="726" y1="772" y2="772"/><ellipse cx="568" cy="783.9023" fill="#84BE84" rx="3" ry="3" style="stroke: #038048; stroke-width: 1.0;"/><text fill="#000000" font-family="sans-serif" font-size="11" lengthAdjust="spacingAndGlyphs" textLength="144" x="577" y="786.2104">parse(String[], int) : Loop</text><ellipse cx="568" cy="796.707" fill="#84BE84" rx="3" ry="3" style="stroke: #038048; stroke-width: 1.0;"/><text fill="#000000" font-family="sans-serif" font-size="11" lengthAdjust="spacingAndGlyphs" textLength="137" x="577" y="799.0151">getEnd(String[], int) : int</text><rect fill="#FEFECE" filter="url(#f1)" height="60.8047" style="stroke: #A80036; stroke-width: 1.5;" width="212" x="144.5" y="482.5"/><ellipse cx="211.25" cy="498.5" fill="#ADD1B2" rx="11" ry="11" style="stroke: #A80036; stroke-width: 1.0;"/><path d="M214.2188,504.1406 Q213.6406,504.4375 213,504.5859 Q212.3594,504.7344 211.6563,504.7344 Q209.1563,504.7344 207.8359,503.0859 Q206.5156,501.4375 206.5156,498.3125 Q206.5156,495.1875 207.8359,493.5313 Q209.1563,491.875 211.6563,491.875 Q212.3594,491.875 213.0078,492.0313 Q213.6563,492.1875 214.2188,492.4844 L214.2188,495.2031 Q213.5938,494.625 213,494.3516 Q212.4063,494.0781 211.7813,494.0781 Q210.4375,494.0781 209.75,495.1484 Q209.0625,496.2188 209.0625,498.3125 Q209.0625,500.4063 209.75,501.4766 Q210.4375,502.5469 211.7813,502.5469 Q212.4063,502.5469 213,502.2734 Q213.5938,502 214.2188,501.4219 L214.2188,504.1406 Z "/><text fill="#000000" font-family="sans-serif" font-size="12" lengthAdjust="spacingAndGlyphs" textLength="70" x="231.75" y="502.6543">PrintParser</text><line style="stroke: #A80036; stroke-width: 1.5;" x1="145.5" x2="355.5" y1="514.5" y2="514.5"/><line style="stroke: #A80036; stroke-width: 1.5;" x1="145.5" x2="355.5" y1="522.5" y2="522.5"/><ellipse cx="155.5" cy="534.4023" fill="#84BE84" rx="3" ry="3" style="stroke: #038048; stroke-width: 1.0;"/><text fill="#000000" font-family="sans-serif" font-size="11" lengthAdjust="spacingAndGlyphs" textLength="186" x="164.5" y="536.7104">parse(String, int) : BWInstruction</text><rect fill="#FEFECE" filter="url(#f1)" height="60.8047" style="stroke: #A80036; stroke-width: 1.5;" width="172" x="947" y="482.5"/><ellipse cx="987.65" cy="498.5" fill="#ADD1B2" rx="11" ry="11" style="stroke: #A80036; stroke-width: 1.0;"/><path d="M990.6188,504.1406 Q990.0406,504.4375 989.4,504.5859 Q988.7594,504.7344 988.0563,504.7344 Q985.5563,504.7344 984.2359,503.0859 Q982.9156,501.4375 982.9156,498.3125 Q982.9156,495.1875 984.2359,493.5313 Q985.5563,491.875 988.0563,491.875 Q988.7594,491.875 989.4078,492.0313 Q990.0563,492.1875 990.6188,492.4844 L990.6188,495.2031 Q989.9938,494.625 989.4,494.3516 Q988.8063,494.0781 988.1813,494.0781 Q986.8375,494.0781 986.15,495.1484 Q985.4625,496.2188 985.4625,498.3125 Q985.4625,500.4063 986.15,501.4766 Q986.8375,502.5469 988.1813,502.5469 Q988.8063,502.5469 989.4,502.2734 Q989.9938,502 990.6188,501.4219 L990.6188,504.1406 Z "/><text fill="#000000" font-family="sans-serif" font-size="12" lengthAdjust="spacingAndGlyphs" textLength="83" x="1007.35" y="502.6543">ReturnParser</text><line style="stroke: #A80036; stroke-width: 1.5;" x1="948" x2="1118" y1="514.5" y2="514.5"/><line style="stroke: #A80036; stroke-width: 1.5;" x1="948" x2="1118" y1="522.5" y2="522.5"/><ellipse cx="958" cy="534.4023" fill="#84BE84" rx="3" ry="3" style="stroke: #038048; stroke-width: 1.0;"/><text fill="#000000" font-family="sans-serif" font-size="11" lengthAdjust="spacingAndGlyphs" textLength="146" x="967" y="536.7104">parse(String, int) : Return</text><rect fill="#FEFECE" filter="url(#f1)" height="60.8047" style="stroke: #A80036; stroke-width: 1.5;" width="309" x="532.75" y="482.5"/><ellipse cx="601" cy="498.5" fill="#ADD1B2" rx="11" ry="11" style="stroke: #A80036; stroke-width: 1.0;"/><path d="M603.9688,504.1406 Q603.3906,504.4375 602.75,504.5859 Q602.1094,504.7344 601.4063,504.7344 Q598.9063,504.7344 597.5859,503.0859 Q596.2656,501.4375 596.2656,498.3125 Q596.2656,495.1875 597.5859,493.5313 Q598.9063,491.875 601.4063,491.875 Q602.1094,491.875 602.7578,492.0313 Q603.4063,492.1875 603.9688,492.4844 L603.9688,495.2031 Q603.3438,494.625 602.75,494.3516 Q602.1563,494.0781 601.5313,494.0781 Q600.1875,494.0781 599.5,495.1484 Q598.8125,496.2188 598.8125,498.3125 Q598.8125,500.4063 599.5,501.4766 Q600.1875,502.5469 601.5313,502.5469 Q602.1563,502.5469 602.75,502.2734 Q603.3438,502 603.9688,501.4219 L603.9688,504.1406 Z "/><text fill="#000000" font-family="sans-serif" font-size="12" lengthAdjust="spacingAndGlyphs" textLength="164" x="621.5" y="502.6543">VariableDeclarationParser</text><line style="stroke: #A80036; stroke-width: 1.5;" x1="533.75" x2="840.75" y1="514.5" y2="514.5"/><line style="stroke: #A80036; stroke-width: 1.5;" x1="533.75" x2="840.75" y1="522.5" y2="522.5"/><ellipse cx="543.75" cy="534.4023" fill="#84BE84" rx="3" ry="3" style="stroke: #038048; stroke-width: 1.0;"/><text fill="#000000" font-family="sans-serif" font-size="11" lengthAdjust="spacingAndGlyphs" textLength="283" x="552.75" y="536.7104">parseDeclaration(String, int) : VariableDeclaration</text><rect fill="#FEFECE" filter="url(#f1)" height="86.4141" style="stroke: #A80036; stroke-width: 1.5;" width="298" x="772.5" y="111"/><ellipse cx="858.75" cy="127" fill="#ADD1B2" rx="11" ry="11" style="stroke: #A80036; stroke-width: 1.0;"/><path d="M861.7188,132.6406 Q861.1406,132.9375 860.5,133.0859 Q859.8594,133.2344 859.1563,133.2344 Q856.6563,133.2344 855.3359,131.5859 Q854.0156,129.9375 854.0156,126.8125 Q854.0156,123.6875 855.3359,122.0313 Q856.6563,120.375 859.1563,120.375 Q859.8594,120.375 860.5078,120.5313 Q861.1563,120.6875 861.7188,120.9844 L861.7188,123.7031 Q861.0938,123.125 860.5,122.8516 Q859.9063,122.5781 859.2813,122.5781 Q857.9375,122.5781 857.25,123.6484 Q856.5625,124.7188 856.5625,126.8125 Q856.5625,128.9063 857.25,129.9766 Q857.9375,131.0469 859.2813,131.0469 Q859.9063,131.0469 860.5,130.7734 Q861.0938,130.5 861.7188,129.9219 L861.7188,132.6406 Z "/><text fill="#000000" font-family="sans-serif" font-size="12" lengthAdjust="spacingAndGlyphs" textLength="117" x="879.25" y="131.1543">FunctionCallParser</text><line style="stroke: #A80036; stroke-width: 1.5;" x1="773.5" x2="1069.5" y1="143" y2="143"/><line style="stroke: #A80036; stroke-width: 1.5;" x1="773.5" x2="1069.5" y1="151" y2="151"/><ellipse cx="783.5" cy="162.9023" fill="#84BE84" rx="3" ry="3" style="stroke: #038048; stroke-width: 1.0;"/><text fill="#000000" font-family="sans-serif" font-size="11" lengthAdjust="spacingAndGlyphs" textLength="177" x="792.5" y="165.2104">parse(String, int) : FunctionCall</text><rect fill="#F24D5C" height="6" style="stroke: #C82930; stroke-width: 1.0;" width="6" x="780.5" y="172.707"/><text fill="#000000" font-family="sans-serif" font-size="11" lengthAdjust="spacingAndGlyphs" textLength="272" x="792.5" y="178.0151">parseArguments(String, int) : List&lt;BWVariable&gt;</text><rect fill="#F24D5C" height="6" style="stroke: #C82930; stroke-width: 1.0;" width="6" x="780.5" y="185.5117"/><text fill="#000000" font-family="sans-serif" font-size="11" lengthAdjust="spacingAndGlyphs" textLength="227" x="792.5" y="190.8198">parseArgument(String, int) : BWVariable</text><rect fill="#FEFECE" filter="url(#f1)" height="48" style="stroke: #A80036; stroke-width: 1.5;" width="108" x="1037" y="367"/><ellipse cx="1052" cy="383" fill="#ADD1B2" rx="11" ry="11" style="stroke: #A80036; stroke-width: 1.0;"/><path d="M1054.9688,388.6406 Q1054.3906,388.9375 1053.75,389.0859 Q1053.1094,389.2344 1052.4063,389.2344 Q1049.9063,389.2344 1048.5859,387.5859 Q1047.2656,385.9375 1047.2656,382.8125 Q1047.2656,379.6875 1048.5859,378.0313 Q1049.9063,376.375 1052.4063,376.375 Q1053.1094,376.375 1053.7578,376.5313 Q1054.4063,376.6875 1054.9688,376.9844 L1054.9688,379.7031 Q1054.3438,379.125 1053.75,378.8516 Q1053.1563,378.5781 1052.5313,378.5781 Q1051.1875,378.5781 1050.5,379.6484 Q1049.8125,380.7188 1049.8125,382.8125 Q1049.8125,384.9063 1050.5,385.9766 Q1051.1875,387.0469 1052.5313,387.0469 Q1053.1563,387.0469 1053.75,386.7734 Q1054.3438,386.5 1054.9688,385.9219 L1054.9688,388.6406 Z "/><text fill="#000000" font-family="sans-serif" font-size="12" lengthAdjust="spacingAndGlyphs" textLength="76" x="1066" y="387.1543">FunctionCall</text><line style="stroke: #A80036; stroke-width: 1.5;" x1="1038" x2="1144" y1="399" y2="399"/><line style="stroke: #A80036; stroke-width: 1.5;" x1="1038" x2="1144" y1="407" y2="407"/><rect fill="#FEFECE" filter="url(#f1)" height="48" style="stroke: #A80036; stroke-width: 1.5;" width="118" x="841" y="745"/><ellipse cx="856" cy="761" fill="#ADD1B2" rx="11" ry="11" style="stroke: #A80036; stroke-width: 1.0;"/><path d="M858.9688,766.6406 Q858.3906,766.9375 857.75,767.0859 Q857.1094,767.2344 856.4063,767.2344 Q853.9063,767.2344 852.5859,765.5859 Q851.2656,763.9375 851.2656,760.8125 Q851.2656,757.6875 852.5859,756.0313 Q853.9063,754.375 856.4063,754.375 Q857.1094,754.375 857.7578,754.5313 Q858.4063,754.6875 858.9688,754.9844 L858.9688,757.7031 Q858.3438,757.125 857.75,756.8516 Q857.1563,756.5781 856.5313,756.5781 Q855.1875,756.5781 854.5,757.6484 Q853.8125,758.7188 853.8125,760.8125 Q853.8125,762.9063 854.5,763.9766 Q855.1875,765.0469 856.5313,765.0469 Q857.1563,765.0469 857.75,764.7734 Q858.3438,764.5 858.9688,763.9219 L858.9688,766.6406 Z "/><text fill="#000000" font-family="sans-serif" font-size="12" lengthAdjust="spacingAndGlyphs" textLength="86" x="870" y="765.1543">BWInstruction</text><line style="stroke: #A80036; stroke-width: 1.5;" x1="842" x2="958" y1="777" y2="777"/><line style="stroke: #A80036; stroke-width: 1.5;" x1="842" x2="958" y1="785" y2="785"/><rect fill="#FEFECE" filter="url(#f1)" height="60.8047" style="stroke: #A80036; stroke-width: 1.5;" width="184" x="225" y="123.5"/><ellipse cx="269.75" cy="139.5" fill="#ADD1B2" rx="11" ry="11" style="stroke: #A80036; stroke-width: 1.0;"/><path d="M272.7188,145.1406 Q272.1406,145.4375 271.5,145.5859 Q270.8594,145.7344 270.1563,145.7344 Q267.6563,145.7344 266.3359,144.0859 Q265.0156,142.4375 265.0156,139.3125 Q265.0156,136.1875 266.3359,134.5313 Q267.6563,132.875 270.1563,132.875 Q270.8594,132.875 271.5078,133.0313 Q272.1563,133.1875 272.7188,133.4844 L272.7188,136.2031 Q272.0938,135.625 271.5,135.3516 Q270.9063,135.0781 270.2813,135.0781 Q268.9375,135.0781 268.25,136.1484 Q267.5625,137.2188 267.5625,139.3125 Q267.5625,141.4063 268.25,142.4766 Q268.9375,143.5469 270.2813,143.5469 Q270.9063,143.5469 271.5,143.2734 Q272.0938,143 272.7188,142.4219 L272.7188,145.1406 Z "/><text fill="#000000" font-family="sans-serif" font-size="12" lengthAdjust="spacingAndGlyphs" textLength="86" x="290.25" y="143.6543">IntegerParser</text><line style="stroke: #A80036; stroke-width: 1.5;" x1="226" x2="408" y1="155.5" y2="155.5"/><line style="stroke: #A80036; stroke-width: 1.5;" x1="226" x2="408" y1="163.5" y2="163.5"/><ellipse cx="236" cy="175.4023" fill="#84BE84" rx="3" ry="3" style="stroke: #038048; stroke-width: 1.0;"/><text fill="#000000" font-family="sans-serif" font-size="11" lengthAdjust="spacingAndGlyphs" textLength="158" x="245" y="177.7104">parse(String, int) BWInteger</text><rect fill="#FEFECE" filter="url(#f1)" height="48" style="stroke: #A80036; stroke-width: 1.5;" width="96" x="168" y="367"/><ellipse cx="183" cy="383" fill="#ADD1B2" rx="11" ry="11" style="stroke: #A80036; stroke-width: 1.0;"/><path d="M185.9688,388.6406 Q185.3906,388.9375 184.75,389.0859 Q184.1094,389.2344 183.4063,389.2344 Q180.9063,389.2344 179.5859,387.5859 Q178.2656,385.9375 178.2656,382.8125 Q178.2656,379.6875 179.5859,378.0313 Q180.9063,376.375 183.4063,376.375 Q184.1094,376.375 184.7578,376.5313 Q185.4063,376.6875 185.9688,376.9844 L185.9688,379.7031 Q185.3438,379.125 184.75,378.8516 Q184.1563,378.5781 183.5313,378.5781 Q182.1875,378.5781 181.5,379.6484 Q180.8125,380.7188 180.8125,382.8125 Q180.8125,384.9063 181.5,385.9766 Q182.1875,387.0469 183.5313,387.0469 Q184.1563,387.0469 184.75,386.7734 Q185.3438,386.5 185.9688,385.9219 L185.9688,388.6406 Z "/><text fill="#000000" font-family="sans-serif" font-size="12" lengthAdjust="spacingAndGlyphs" textLength="64" x="197" y="387.1543">BWInteger</text><line style="stroke: #A80036; stroke-width: 1.5;" x1="169" x2="263" y1="399" y2="399"/><line style="stroke: #A80036; stroke-width: 1.5;" x1="169" x2="263" y1="407" y2="407"/><rect fill="#FEFECE" filter="url(#f1)" height="48" style="stroke: #A80036; stroke-width: 1.5;" width="62" x="602.5" y="885"/><ellipse cx="617.5" cy="901" fill="#ADD1B2" rx="11" ry="11" style="stroke: #A80036; stroke-width: 1.0;"/><path d="M620.4688,906.6406 Q619.8906,906.9375 619.25,907.0859 Q618.6094,907.2344 617.9063,907.2344 Q615.4063,907.2344 614.0859,905.5859 Q612.7656,903.9375 612.7656,900.8125 Q612.7656,897.6875 614.0859,896.0313 Q615.4063,894.375 617.9063,894.375 Q618.6094,894.375 619.2578,894.5313 Q619.9063,894.6875 620.4688,894.9844 L620.4688,897.7031 Q619.8438,897.125 619.25,896.8516 Q618.6563,896.5781 618.0313,896.5781 Q616.6875,896.5781 616,897.6484 Q615.3125,898.7188 615.3125,900.8125 Q615.3125,902.9063 616,903.9766 Q616.6875,905.0469 618.0313,905.0469 Q618.6563,905.0469 619.25,904.7734 Q619.8438,904.5 620.4688,903.9219 L620.4688,906.6406 Z "/><text fill="#000000" font-family="sans-serif" font-size="12" lengthAdjust="spacingAndGlyphs" textLength="30" x="631.5" y="905.1543">Loop</text><line style="stroke: #A80036; stroke-width: 1.5;" x1="603.5" x2="663.5" y1="917" y2="917"/><line style="stroke: #A80036; stroke-width: 1.5;" x1="603.5" x2="663.5" y1="925" y2="925"/><rect fill="#FEFECE" filter="url(#f1)" height="60.8047" style="stroke: #A80036; stroke-width: 1.5;" width="219" x="1105.75" y="123.5"/><ellipse cx="1144.6" cy="139.5" fill="#ADD1B2" rx="11" ry="11" style="stroke: #A80036; stroke-width: 1.0;"/><path d="M1147.5688,145.1406 Q1146.9906,145.4375 1146.35,145.5859 Q1145.7094,145.7344 1145.0063,145.7344 Q1142.5063,145.7344 1141.1859,144.0859 Q1139.8656,142.4375 1139.8656,139.3125 Q1139.8656,136.1875 1141.1859,134.5313 Q1142.5063,132.875 1145.0063,132.875 Q1145.7094,132.875 1146.3578,133.0313 Q1147.0063,133.1875 1147.5688,133.4844 L1147.5688,136.2031 Q1146.9438,135.625 1146.35,135.3516 Q1145.7563,135.0781 1145.1313,135.0781 Q1143.7875,135.0781 1143.1,136.1484 Q1142.4125,137.2188 1142.4125,139.3125 Q1142.4125,141.4063 1143.1,142.4766 Q1143.7875,143.5469 1145.1313,143.5469 Q1145.7563,143.5469 1146.35,143.2734 Q1146.9438,143 1147.5688,142.4219 L1147.5688,145.1406 Z "/><text fill="#000000" font-family="sans-serif" font-size="12" lengthAdjust="spacingAndGlyphs" textLength="134" x="1163.9" y="143.6543">ObjectCreationParser</text><line style="stroke: #A80036; stroke-width: 1.5;" x1="1106.75" x2="1323.75" y1="155.5" y2="155.5"/><line style="stroke: #A80036; stroke-width: 1.5;" x1="1106.75" x2="1323.75" y1="163.5" y2="163.5"/><ellipse cx="1116.75" cy="175.4023" fill="#84BE84" rx="3" ry="3" style="stroke: #038048; stroke-width: 1.0;"/><text fill="#000000" font-family="sans-serif" font-size="11" lengthAdjust="spacingAndGlyphs" textLength="193" x="1125.75" y="177.7104">parse(String, int) : ObjectCreation</text><rect fill="#FEFECE" filter="url(#f1)" height="48" style="stroke: #A80036; stroke-width: 1.5;" width="125" x="1180.75" y="367"/><ellipse cx="1195.75" cy="383" fill="#ADD1B2" rx="11" ry="11" style="stroke: #A80036; stroke-width: 1.0;"/><path d="M1198.7188,388.6406 Q1198.1406,388.9375 1197.5,389.0859 Q1196.8594,389.2344 1196.1563,389.2344 Q1193.6563,389.2344 1192.3359,387.5859 Q1191.0156,385.9375 1191.0156,382.8125 Q1191.0156,379.6875 1192.3359,378.0313 Q1193.6563,376.375 1196.1563,376.375 Q1196.8594,376.375 1197.5078,376.5313 Q1198.1563,376.6875 1198.7188,376.9844 L1198.7188,379.7031 Q1198.0938,379.125 1197.5,378.8516 Q1196.9063,378.5781 1196.2813,378.5781 Q1194.9375,378.5781 1194.25,379.6484 Q1193.5625,380.7188 1193.5625,382.8125 Q1193.5625,384.9063 1194.25,385.9766 Q1194.9375,387.0469 1196.2813,387.0469 Q1196.9063,387.0469 1197.5,386.7734 Q1198.0938,386.5 1198.7188,385.9219 L1198.7188,388.6406 Z "/><text fill="#000000" font-family="sans-serif" font-size="12" lengthAdjust="spacingAndGlyphs" textLength="93" x="1209.75" y="387.1543">ObjectCreation</text><line style="stroke: #A80036; stroke-width: 1.5;" x1="1181.75" x2="1304.75" y1="399" y2="399"/><line style="stroke: #A80036; stroke-width: 1.5;" x1="1181.75" x2="1304.75" y1="407" y2="407"/><rect fill="#FEFECE" filter="url(#f1)" height="291.2891" style="stroke: #A80036; stroke-width: 1.5;" width="224" x="1604.5" y="8.5"/><ellipse cx="1685.25" cy="24.5" fill="#ADD1B2" rx="11" ry="11" style="stroke: #A80036; stroke-width: 1.0;"/><path d="M1688.2188,30.1406 Q1687.6406,30.4375 1687,30.5859 Q1686.3594,30.7344 1685.6563,30.7344 Q1683.1563,30.7344 1681.8359,29.0859 Q1680.5156,27.4375 1680.5156,24.3125 Q1680.5156,21.1875 1681.8359,19.5313 Q1683.1563,17.875 1685.6563,17.875 Q1686.3594,17.875 1687.0078,18.0313 Q1687.6563,18.1875 1688.2188,18.4844 L1688.2188,21.2031 Q1687.5938,20.625 1687,20.3516 Q1686.4063,20.0781 1685.7813,20.0781 Q1684.4375,20.0781 1683.75,21.1484 Q1683.0625,22.2188 1683.0625,24.3125 Q1683.0625,26.4063 1683.75,27.4766 Q1684.4375,28.5469 1685.7813,28.5469 Q1686.4063,28.5469 1687,28.2734 Q1687.5938,28 1688.2188,27.4219 L1688.2188,30.1406 Z "/><text fill="#000000" font-family="sans-serif" font-size="12" lengthAdjust="spacingAndGlyphs" textLength="54" x="1705.75" y="28.6543">Patterns</text><line style="stroke: #A80036; stroke-width: 1.5;" x1="1605.5" x2="1827.5" y1="40.5" y2="40.5"/><ellipse cx="1615.5" cy="52.4023" fill="none" rx="3" ry="3" style="stroke: #038048; stroke-width: 1.0;"/><text fill="#000000" font-family="sans-serif" font-size="11" lengthAdjust="spacingAndGlyphs" text-decoration="underline" textLength="81" x="1624.5" y="54.7104">BEGIN : String</text><line style="stroke: #000000; stroke-width: 1.0;" x1="1624.5" x2="1705.5" y1="56.7104" y2="56.7104"/><ellipse cx="1615.5" cy="65.207" fill="none" rx="3" ry="3" style="stroke: #038048; stroke-width: 1.0;"/><text fill="#000000" font-family="sans-serif" font-size="11" lengthAdjust="spacingAndGlyphs" text-decoration="underline" textLength="69" x="1624.5" y="67.5151">END : String</text><line style="stroke: #000000; stroke-width: 1.0;" x1="1624.5" x2="1693.5" y1="69.5151" y2="69.5151"/><ellipse cx="1615.5" cy="78.0117" fill="none" rx="3" ry="3" style="stroke: #038048; stroke-width: 1.0;"/><text fill="#000000" font-family="sans-serif" font-size="11" lengthAdjust="spacingAndGlyphs" text-decoration="underline" textLength="124" x="1624.5" y="80.3198">CLASS_BEGIN : String</text><line style="stroke: #000000; stroke-width: 1.0;" x1="1624.5" x2="1748.5" y1="82.3198" y2="82.3198"/><ellipse cx="1615.5" cy="90.8164" fill="none" rx="3" ry="3" style="stroke: #038048; stroke-width: 1.0;"/><text fill="#000000" font-family="sans-serif" font-size="11" lengthAdjust="spacingAndGlyphs" text-decoration="underline" textLength="112" x="1624.5" y="93.1245">CLASS_END : String</text><line style="stroke: #000000; stroke-width: 1.0;" x1="1624.5" x2="1736.5" y1="95.1245" y2="95.1245"/><ellipse cx="1615.5" cy="103.6211" fill="none" rx="3" ry="3" style="stroke: #038048; stroke-width: 1.0;"/><text fill="#000000" font-family="sans-serif" font-size="11" lengthAdjust="spacingAndGlyphs" text-decoration="underline" textLength="144" x="1624.5" y="105.9292">FUNCTION_BEGIN : String</text><line style="stroke: #000000; stroke-width: 1.0;" x1="1624.5" x2="1768.5" y1="107.9292" y2="107.9292"/><ellipse cx="1615.5" cy="116.4258" fill="none" rx="3" ry="3" style="stroke: #038048; stroke-width: 1.0;"/><text fill="#000000" font-family="sans-serif" font-size="11" lengthAdjust="spacingAndGlyphs" text-decoration="underline" textLength="132" x="1624.5" y="118.7339">FUNCTION_END : String</text><line style="stroke: #000000; stroke-width: 1.0;" x1="1624.5" x2="1756.5" y1="120.7339" y2="120.7339"/><ellipse cx="1615.5" cy="129.2305" fill="none" rx="3" ry="3" style="stroke: #038048; stroke-width: 1.0;"/><text fill="#000000" font-family="sans-serif" font-size="11" lengthAdjust="spacingAndGlyphs" text-decoration="underline" textLength="183" x="1624.5" y="131.5386">FUNCTION_PARAM_FIRST : String</text><line style="stroke: #000000; stroke-width: 1.0;" x1="1624.5" x2="1807.5" y1="133.5386" y2="133.5386"/><ellipse cx="1615.5" cy="142.0352" fill="none" rx="3" ry="3" style="stroke: #038048; stroke-width: 1.0;"/><text fill="#000000" font-family="sans-serif" font-size="11" lengthAdjust="spacingAndGlyphs" text-decoration="underline" textLength="198" x="1624.5" y="144.3433">FUNCTION_PARAM_OTHERS : String</text><line style="stroke: #000000; stroke-width: 1.0;" x1="1624.5" x2="1822.5" y1="146.3433" y2="146.3433"/><ellipse cx="1615.5" cy="154.8398" fill="none" rx="3" ry="3" style="stroke: #038048; stroke-width: 1.0;"/><text fill="#000000" font-family="sans-serif" font-size="11" lengthAdjust="spacingAndGlyphs" text-decoration="underline" textLength="136" x="1624.5" y="157.1479">FUNCTION_CALL : String</text><line style="stroke: #000000; stroke-width: 1.0;" x1="1624.5" x2="1760.5" y1="159.1479" y2="159.1479"/><ellipse cx="1615.5" cy="167.6445" fill="none" rx="3" ry="3" style="stroke: #038048; stroke-width: 1.0;"/><text fill="#000000" font-family="sans-serif" font-size="11" lengthAdjust="spacingAndGlyphs" text-decoration="underline" textLength="174" x="1624.5" y="169.9526">CLASS_INSTANTIATION : String</text><line style="stroke: #000000; stroke-width: 1.0;" x1="1624.5" x2="1798.5" y1="171.9526" y2="171.9526"/><ellipse cx="1615.5" cy="180.4492" fill="none" rx="3" ry="3" style="stroke: #038048; stroke-width: 1.0;"/><text fill="#000000" font-family="sans-serif" font-size="11" lengthAdjust="spacingAndGlyphs" text-decoration="underline" textLength="181" x="1624.5" y="182.7573">VARIABLE_DECLARATION : String</text><line style="stroke: #000000; stroke-width: 1.0;" x1="1624.5" x2="1805.5" y1="184.7573" y2="184.7573"/><ellipse cx="1615.5" cy="193.2539" fill="none" rx="3" ry="3" style="stroke: #038048; stroke-width: 1.0;"/><text fill="#000000" font-family="sans-serif" font-size="11" lengthAdjust="spacingAndGlyphs" text-decoration="underline" textLength="90" x="1624.5" y="195.562">NAMING : String</text><line style="stroke: #000000; stroke-width: 1.0;" x1="1624.5" x2="1714.5" y1="197.562" y2="197.562"/><ellipse cx="1615.5" cy="206.0586" fill="none" rx="3" ry="3" style="stroke: #038048; stroke-width: 1.0;"/><text fill="#000000" font-family="sans-serif" font-size="11" lengthAdjust="spacingAndGlyphs" text-decoration="underline" textLength="94" x="1624.5" y="208.3667">INCLUDE : String</text><line style="stroke: #000000; stroke-width: 1.0;" x1="1624.5" x2="1718.5" y1="210.3667" y2="210.3667"/><ellipse cx="1615.5" cy="218.8633" fill="none" rx="3" ry="3" style="stroke: #038048; stroke-width: 1.0;"/><text fill="#000000" font-family="sans-serif" font-size="11" lengthAdjust="spacingAndGlyphs" text-decoration="underline" textLength="78" x="1624.5" y="221.1714">PRINT : String</text><line style="stroke: #000000; stroke-width: 1.0;" x1="1624.5" x2="1702.5" y1="223.1714" y2="223.1714"/><ellipse cx="1615.5" cy="231.668" fill="none" rx="3" ry="3" style="stroke: #038048; stroke-width: 1.0;"/><text fill="#000000" font-family="sans-serif" font-size="11" lengthAdjust="spacingAndGlyphs" text-decoration="underline" textLength="145" x="1624.5" y="233.9761">CONDITION_HEAD : String</text><line style="stroke: #000000; stroke-width: 1.0;" x1="1624.5" x2="1769.5" y1="235.9761" y2="235.9761"/><ellipse cx="1615.5" cy="244.4727" fill="none" rx="3" ry="3" style="stroke: #038048; stroke-width: 1.0;"/><text fill="#000000" font-family="sans-serif" font-size="11" lengthAdjust="spacingAndGlyphs" text-decoration="underline" textLength="181" x="1624.5" y="246.7808">CONDITION_SEPARATOR : String</text><line style="stroke: #000000; stroke-width: 1.0;" x1="1624.5" x2="1805.5" y1="248.7808" y2="248.7808"/><ellipse cx="1615.5" cy="257.2773" fill="none" rx="3" ry="3" style="stroke: #038048; stroke-width: 1.0;"/><text fill="#000000" font-family="sans-serif" font-size="11" lengthAdjust="spacingAndGlyphs" text-decoration="underline" textLength="138" x="1624.5" y="259.5854">CONDITION_END : String</text><line style="stroke: #000000; stroke-width: 1.0;" x1="1624.5" x2="1762.5" y1="261.5854" y2="261.5854"/><ellipse cx="1615.5" cy="270.082" fill="none" rx="3" ry="3" style="stroke: #038048; stroke-width: 1.0;"/><text fill="#000000" font-family="sans-serif" font-size="11" lengthAdjust="spacingAndGlyphs" text-decoration="underline" textLength="113" x="1624.5" y="272.3901">LOOP_HEAD : String</text><line style="stroke: #000000; stroke-width: 1.0;" x1="1624.5" x2="1737.5" y1="274.3901" y2="274.3901"/><ellipse cx="1615.5" cy="282.8867" fill="none" rx="3" ry="3" style="stroke: #038048; stroke-width: 1.0;"/><text fill="#000000" font-family="sans-serif" font-size="11" lengthAdjust="spacingAndGlyphs" text-decoration="underline" textLength="106" x="1624.5" y="285.1948">LOOP_END : String</text><line style="stroke: #000000; stroke-width: 1.0;" x1="1624.5" x2="1730.5" y1="287.1948" y2="287.1948"/><line style="stroke: #A80036; stroke-width: 1.5;" x1="1605.5" x2="1827.5" y1="291.7891" y2="291.7891"/><rect fill="#FEFECE" filter="url(#f1)" height="48" style="stroke: #A80036; stroke-width: 1.5;" width="90" x="6" y="611"/><ellipse cx="21" cy="627" fill="#ADD1B2" rx="11" ry="11" style="stroke: #A80036; stroke-width: 1.0;"/><path d="M23.9688,632.6406 Q23.3906,632.9375 22.75,633.0859 Q22.1094,633.2344 21.4063,633.2344 Q18.9063,633.2344 17.5859,631.5859 Q16.2656,629.9375 16.2656,626.8125 Q16.2656,623.6875 17.5859,622.0313 Q18.9063,620.375 21.4063,620.375 Q22.1094,620.375 22.7578,620.5313 Q23.4063,620.6875 23.9688,620.9844 L23.9688,623.7031 Q23.3438,623.125 22.75,622.8516 Q22.1563,622.5781 21.5313,622.5781 Q20.1875,622.5781 19.5,623.6484 Q18.8125,624.7188 18.8125,626.8125 Q18.8125,628.9063 19.5,629.9766 Q20.1875,631.0469 21.5313,631.0469 Q22.1563,631.0469 22.75,630.7734 Q23.3438,630.5 23.9688,629.9219 L23.9688,632.6406 Z "/><text fill="#000000" font-family="sans-serif" font-size="12" lengthAdjust="spacingAndGlyphs" textLength="58" x="35" y="631.1543">PrintChar</text><line style="stroke: #A80036; stroke-width: 1.5;" x1="7" x2="95" y1="643" y2="643"/><line style="stroke: #A80036; stroke-width: 1.5;" x1="7" x2="95" y1="651" y2="651"/><rect fill="#FEFECE" filter="url(#f1)" height="48" style="stroke: #A80036; stroke-width: 1.5;" width="77" x="131.75" y="611"/><ellipse cx="146.75" cy="627" fill="#ADD1B2" rx="11" ry="11" style="stroke: #A80036; stroke-width: 1.0;"/><path d="M149.7188,632.6406 Q149.1406,632.9375 148.5,633.0859 Q147.8594,633.2344 147.1563,633.2344 Q144.6563,633.2344 143.3359,631.5859 Q142.0156,629.9375 142.0156,626.8125 Q142.0156,623.6875 143.3359,622.0313 Q144.6563,620.375 147.1563,620.375 Q147.8594,620.375 148.5078,620.5313 Q149.1563,620.6875 149.7188,620.9844 L149.7188,623.7031 Q149.0938,623.125 148.5,622.8516 Q147.9063,622.5781 147.2813,622.5781 Q145.9375,622.5781 145.25,623.6484 Q144.5625,624.7188 144.5625,626.8125 Q144.5625,628.9063 145.25,629.9766 Q145.9375,631.0469 147.2813,631.0469 Q147.9063,631.0469 148.5,630.7734 Q149.0938,630.5 149.7188,629.9219 L149.7188,632.6406 Z "/><text fill="#000000" font-family="sans-serif" font-size="12" lengthAdjust="spacingAndGlyphs" textLength="45" x="160.75" y="631.1543">PrintInt</text><line style="stroke: #A80036; stroke-width: 1.5;" x1="132.75" x2="207.75" y1="643" y2="643"/><line style="stroke: #A80036; stroke-width: 1.5;" x1="132.75" x2="207.75" y1="651" y2="651"/><rect fill="#FEFECE" filter="url(#f1)" height="48" style="stroke: #A80036; stroke-width: 1.5;" width="112" x="244.5" y="611"/><ellipse cx="259.5" cy="627" fill="#ADD1B2" rx="11" ry="11" style="stroke: #A80036; stroke-width: 1.0;"/><path d="M262.4688,632.6406 Q261.8906,632.9375 261.25,633.0859 Q260.6094,633.2344 259.9063,633.2344 Q257.4063,633.2344 256.0859,631.5859 Q254.7656,629.9375 254.7656,626.8125 Q254.7656,623.6875 256.0859,622.0313 Q257.4063,620.375 259.9063,620.375 Q260.6094,620.375 261.2578,620.5313 Q261.9063,620.6875 262.4688,620.9844 L262.4688,623.7031 Q261.8438,623.125 261.25,622.8516 Q260.6563,622.5781 260.0313,622.5781 Q258.6875,622.5781 258,623.6484 Q257.3125,624.7188 257.3125,626.8125 Q257.3125,628.9063 258,629.9766 Q258.6875,631.0469 260.0313,631.0469 Q260.6563,631.0469 261.25,630.7734 Q261.8438,630.5 262.4688,629.9219 L262.4688,632.6406 Z "/><text fill="#000000" font-family="sans-serif" font-size="12" lengthAdjust="spacingAndGlyphs" textLength="80" x="273.5" y="631.1543">PrintVariable</text><line style="stroke: #A80036; stroke-width: 1.5;" x1="245.5" x2="355.5" y1="643" y2="643"/><line style="stroke: #A80036; stroke-width: 1.5;" x1="245.5" x2="355.5" y1="651" y2="651"/><rect fill="#FEFECE" filter="url(#f1)" height="60.8047" style="stroke: #A80036; stroke-width: 1.5;" width="209" x="1359.75" y="123.5"/><ellipse cx="1398.6" cy="139.5" fill="#ADD1B2" rx="11" ry="11" style="stroke: #A80036; stroke-width: 1.0;"/><path d="M1401.5688,145.1406 Q1400.9906,145.4375 1400.35,145.5859 Q1399.7094,145.7344 1399.0063,145.7344 Q1396.5063,145.7344 1395.1859,144.0859 Q1393.8656,142.4375 1393.8656,139.3125 Q1393.8656,136.1875 1395.1859,134.5313 Q1396.5063,132.875 1399.0063,132.875 Q1399.7094,132.875 1400.3578,133.0313 Q1401.0063,133.1875 1401.5688,133.4844 L1401.5688,136.2031 Q1400.9438,135.625 1400.35,135.3516 Q1399.7563,135.0781 1399.1313,135.0781 Q1397.7875,135.0781 1397.1,136.1484 Q1396.4125,137.2188 1396.4125,139.3125 Q1396.4125,141.4063 1397.1,142.4766 Q1397.7875,143.5469 1399.1313,143.5469 Q1399.7563,143.5469 1400.35,143.2734 Q1400.9438,143 1401.5688,142.4219 L1401.5688,145.1406 Z "/><text fill="#000000" font-family="sans-serif" font-size="12" lengthAdjust="spacingAndGlyphs" textLength="124" x="1417.9" y="143.6543">ReadVariableParser</text><line style="stroke: #A80036; stroke-width: 1.5;" x1="1360.75" x2="1567.75" y1="155.5" y2="155.5"/><line style="stroke: #A80036; stroke-width: 1.5;" x1="1360.75" x2="1567.75" y1="163.5" y2="163.5"/><ellipse cx="1370.75" cy="175.4023" fill="#84BE84" rx="3" ry="3" style="stroke: #038048; stroke-width: 1.0;"/><text fill="#000000" font-family="sans-serif" font-size="11" lengthAdjust="spacingAndGlyphs" textLength="183" x="1379.75" y="177.7104">parse(String, int) : ReadVariable</text><rect fill="#FEFECE" filter="url(#f1)" height="48" style="stroke: #A80036; stroke-width: 1.5;" width="115" x="1406.75" y="367"/><ellipse cx="1421.75" cy="383" fill="#ADD1B2" rx="11" ry="11" style="stroke: #A80036; stroke-width: 1.0;"/><path d="M1424.7188,388.6406 Q1424.1406,388.9375 1423.5,389.0859 Q1422.8594,389.2344 1422.1563,389.2344 Q1419.6563,389.2344 1418.3359,387.5859 Q1417.0156,385.9375 1417.0156,382.8125 Q1417.0156,379.6875 1418.3359,378.0313 Q1419.6563,376.375 1422.1563,376.375 Q1422.8594,376.375 1423.5078,376.5313 Q1424.1563,376.6875 1424.7188,376.9844 L1424.7188,379.7031 Q1424.0938,379.125 1423.5,378.8516 Q1422.9063,378.5781 1422.2813,378.5781 Q1420.9375,378.5781 1420.25,379.6484 Q1419.5625,380.7188 1419.5625,382.8125 Q1419.5625,384.9063 1420.25,385.9766 Q1420.9375,387.0469 1422.2813,387.0469 Q1422.9063,387.0469 1423.5,386.7734 Q1424.0938,386.5 1424.7188,385.9219 L1424.7188,388.6406 Z "/><text fill="#000000" font-family="sans-serif" font-size="12" lengthAdjust="spacingAndGlyphs" textLength="83" x="1435.75" y="387.1543">ReadVariable</text><line style="stroke: #A80036; stroke-width: 1.5;" x1="1407.75" x2="1520.75" y1="399" y2="399"/><line style="stroke: #A80036; stroke-width: 1.5;" x1="1407.75" x2="1520.75" y1="407" y2="407"/><rect fill="#FEFECE" filter="url(#f1)" height="48" style="stroke: #A80036; stroke-width: 1.5;" width="74" x="1041" y="611"/><ellipse cx="1056" cy="627" fill="#ADD1B2" rx="11" ry="11" style="stroke: #A80036; stroke-width: 1.0;"/><path d="M1058.9688,632.6406 Q1058.3906,632.9375 1057.75,633.0859 Q1057.1094,633.2344 1056.4063,633.2344 Q1053.9063,633.2344 1052.5859,631.5859 Q1051.2656,629.9375 1051.2656,626.8125 Q1051.2656,623.6875 1052.5859,622.0313 Q1053.9063,620.375 1056.4063,620.375 Q1057.1094,620.375 1057.7578,620.5313 Q1058.4063,620.6875 1058.9688,620.9844 L1058.9688,623.7031 Q1058.3438,623.125 1057.75,622.8516 Q1057.1563,622.5781 1056.5313,622.5781 Q1055.1875,622.5781 1054.5,623.6484 Q1053.8125,624.7188 1053.8125,626.8125 Q1053.8125,628.9063 1054.5,629.9766 Q1055.1875,631.0469 1056.5313,631.0469 Q1057.1563,631.0469 1057.75,630.7734 Q1058.3438,630.5 1058.9688,629.9219 L1058.9688,632.6406 Z "/><text fill="#000000" font-family="sans-serif" font-size="12" lengthAdjust="spacingAndGlyphs" textLength="42" x="1070" y="631.1543">Return</text><line style="stroke: #A80036; stroke-width: 1.5;" x1="1042" x2="1114" y1="643" y2="643"/><line style="stroke: #A80036; stroke-width: 1.5;" x1="1042" x2="1114" y1="651" y2="651"/><rect fill="#FEFECE" filter="url(#f1)" height="48" style="stroke: #A80036; stroke-width: 1.5;" width="155" x="603.75" y="611"/><ellipse cx="618.75" cy="627" fill="#ADD1B2" rx="11" ry="11" style="stroke: #A80036; stroke-width: 1.0;"/><path d="M621.7188,632.6406 Q621.1406,632.9375 620.5,633.0859 Q619.8594,633.2344 619.1563,633.2344 Q616.6563,633.2344 615.3359,631.5859 Q614.0156,629.9375 614.0156,626.8125 Q614.0156,623.6875 615.3359,622.0313 Q616.6563,620.375 619.1563,620.375 Q619.8594,620.375 620.5078,620.5313 Q621.1563,620.6875 621.7188,620.9844 L621.7188,623.7031 Q621.0938,623.125 620.5,622.8516 Q619.9063,622.5781 619.2813,622.5781 Q617.9375,622.5781 617.25,623.6484 Q616.5625,624.7188 616.5625,626.8125 Q616.5625,628.9063 617.25,629.9766 Q617.9375,631.0469 619.2813,631.0469 Q619.9063,631.0469 620.5,630.7734 Q621.0938,630.5 621.7188,629.9219 L621.7188,632.6406 Z "/><text fill="#000000" font-family="sans-serif" font-size="12" lengthAdjust="spacingAndGlyphs" textLength="123" x="632.75" y="631.1543">VariableDeclaration</text><line style="stroke: #A80036; stroke-width: 1.5;" x1="604.75" x2="757.75" y1="643" y2="643"/><line style="stroke: #A80036; stroke-width: 1.5;" x1="604.75" x2="757.75" y1="651" y2="651"/><path d="M1505,946.258 C1505,971.173 1505,1003.5038 1505,1024.9602 " fill="none" style="stroke: #A80036; stroke-width: 1.0;"/><path d="M1403.79,942.174 C1399.14,943.498 1394.52,944.78 1390,946 C1256.09,982.108 1097.46,1016.1236 1009.12,1034.2979 " fill="none" style="stroke: #A80036; stroke-width: 1.0;"/><polygon fill="#A80036" points="1408.85,940.722,1399.0941,939.3721,1404.0457,942.1073,1401.3106,947.0589,1408.85,940.722" style="stroke: #A80036; stroke-width: 1.0;"/><path d="M1335.01,806.258 C1331.58,831.173 1327.13,863.504 1324.17,884.96 " fill="none" style="stroke: #A80036; stroke-width: 1.0;"/><path d="M1287.56,809.092 C1238.69,845.253 1163.56,900.173 1097,946 C1067.82,966.093 1035.06,987.659 1007.12,1005.7612 " fill="none" style="stroke: #A80036; stroke-width: 1.0;"/><polygon fill="#A80036" points="1291.62,806.087,1282.0053,808.2216,1287.5997,809.0597,1286.7616,814.6541,1291.62,806.087" style="stroke: #A80036; stroke-width: 1.0;"/><path d="M1387.38,809.628 C1410.88,829.283 1439.06,852.847 1461.94,871.984 " fill="none" style="stroke: #A80036; stroke-width: 1.0;"/><polygon fill="#A80036" points="1383.35,806.258,1387.679,815.1044,1387.1823,809.4694,1392.8173,808.9727,1383.35,806.258" style="stroke: #A80036; stroke-width: 1.0;"/><path d="M638,184.763 C638,232.189 638,323.922 638,366.824 " fill="none" style="stroke: #A80036; stroke-width: 1.0;"/><path d="M660.441,189.06 C682.031,220.228 716.802,266.462 754,300 C778.344,321.948 808.603,342.117 834.754,357.774 " fill="none" style="stroke: #A80036; stroke-width: 1.0;"/><polygon fill="#A80036" points="839.25,360.445,833.5562,352.4088,834.9516,357.8908,829.4696,359.2862,839.25,360.445" style="stroke: #A80036; stroke-width: 1.0;"/><polygon fill="#A80036" points="657.352,184.574,659.1613,194.2552,660.1875,188.6922,665.7505,189.7185,657.352,184.574" style="stroke: #A80036; stroke-width: 1.0;"/><path d="M1063.76,812.154 C1046.59,836.092 1025.75,865.137 1011.55,884.936 " fill="none" style="stroke: #A80036; stroke-width: 1.0;"/><path d="M1092.13,817.521 C1088.82,854.706 1080.03,906.548 1057,946 C1043.62,968.928 1023.24,989.377 1003.272,1005.8357 " fill="none" style="stroke: #A80036; stroke-width: 1.0;"/><polygon fill="#A80036" points="1092.58,812.144,1087.8439,820.7794,1092.1634,817.1266,1095.8161,821.446,1092.58,812.144" style="stroke: #A80036; stroke-width: 1.0;"/><path d="M1232,543.663 C1232,564.346 1232,591.555 1232,610.687 " fill="none" style="stroke: #A80036; stroke-width: 1.0;"/><path d="M1149.67,543.756 C1098.51,562.25 1032.98,585.935 981.893,604.4 " fill="none" style="stroke: #A80036; stroke-width: 1.0;"/><polygon fill="#A80036" points="1154.58,541.983,1144.7562,541.2808,1149.8778,543.6828,1147.4758,548.8043,1154.58,541.983" style="stroke: #A80036; stroke-width: 1.0;"/><path d="M1001.583,418.545 C1007.46,419.769 1013.3,420.93 1019,422 C1213.42,458.46 1267.57,436.204 1460,482 C1469.01,484.145 1478.41,486.859 1487.55,489.772 " fill="none" style="stroke: #A80036; stroke-width: 1.0;"/><path d="M781.541,411.796 C669.353,432.348 510.376,463.964 487,482 C426.883,528.384 409,558.069 409,634 C409,634 409,634 409,770 C409,976.99 729.258,1030.1341 872.811,1043.5586 " fill="none" style="stroke: #A80036; stroke-width: 1.0;"/><polygon fill="#A80036" points="786.513,410.886,776.9399,408.5717,781.5947,411.7862,778.3802,416.441,786.513,410.886" style="stroke: #A80036; stroke-width: 1.0;"/><path d="M1006.5,419.754 C1010.71,420.553 1014.89,421.306 1019,422 C1152,444.458 1532.46,382.02 1623,482 C1725.9,595.627 1596.38,791.294 1534.49,871.794 " fill="none" style="stroke: #A80036; stroke-width: 1.0;"/><polygon fill="#A80036" points="1001.539,418.795,1009.6229,424.4209,1006.4492,419.7382,1011.132,416.5645,1001.539,418.795" style="stroke: #A80036; stroke-width: 1.0;"/><path d="M1006.33,419.299 C1010.6,420.229 1014.84,421.133 1019,422 C1093.9,437.601 1308.84,423.379 1358,482 C1417.62,553.097 1380.82,672.394 1356.44,731.928 " fill="none" style="stroke: #A80036; stroke-width: 1.0;"/><polygon fill="#A80036" points="1001.299,418.194,1009.2293,424.0344,1006.1822,419.2684,1010.9483,416.2213,1001.299,418.194" style="stroke: #A80036; stroke-width: 1.0;"/><path d="M1006.35,419.203 C1010.62,420.161 1014.85,421.096 1019,422 C1154.85,451.562 1237.62,374.679 1326,482 C1365.99,530.568 1283.94,657.033 1276,666 C1253.44,691.497 1222.9,712.022 1193.3,727.788 " fill="none" style="stroke: #A80036; stroke-width: 1.0;"/><polygon fill="#A80036" points="1001.326,418.07,1009.2221,423.9565,1006.2029,419.1728,1010.9866,416.1535,1001.326,418.07" style="stroke: #A80036; stroke-width: 1.0;"/><path d="M894.861,426.742 C896.046,474.502 898.156,559.608 899.268,604.462 " fill="none" style="stroke: #A80036; stroke-width: 1.0;"/><polygon fill="#A80036" points="894.736,421.674,890.9609,430.7706,894.8603,426.6725,898.9585,430.5718,894.736,421.674" style="stroke: #A80036; stroke-width: 1.0;"/><path d="M781.568,411.448 C676,430.849 531.795,460.749 515,482 C452.848,560.64 546.248,674.48 603.268,731.936 " fill="none" style="stroke: #A80036; stroke-width: 1.0;"/><polygon fill="#A80036" points="786.565,410.532,776.9914,408.2199,781.6469,411.4333,778.4335,416.0889,786.565,410.532" style="stroke: #A80036; stroke-width: 1.0;"/><path d="M781.343,410.262 C677.61,427.451 519.576,454.586 383,482 C375.74,483.457 368.269,485.006 360.746,486.603 " fill="none" style="stroke: #A80036; stroke-width: 1.0;"/><polygon fill="#A80036" points="355.532,487.715,365.1684,489.7499,360.422,486.6721,363.4998,481.9258,355.532,487.715" style="stroke: #A80036; stroke-width: 1.0;"/><polygon fill="#A80036" points="786.55,409.4,777.0173,406.9246,781.6172,410.2171,778.3247,414.8171,786.55,409.4" style="stroke: #A80036; stroke-width: 1.0;"/><path d="M932.178,424.96 C952.936,442.88 978.407,464.869 998.554,482.262 " fill="none" style="stroke: #A80036; stroke-width: 1.0;"/><polygon fill="#A80036" points="928.36,421.663,932.5584,430.5722,932.1447,424.9305,937.7864,424.5167,928.36,421.663" style="stroke: #A80036; stroke-width: 1.0;"/><path d="M838.544,424.148 C807.304,442.259 768.559,464.72 738.065,482.397 " fill="none" style="stroke: #A80036; stroke-width: 1.0;"/><polygon fill="#A80036" points="843.097,421.509,833.3045,422.5613,838.7711,424.0163,837.3161,429.4828,843.097,421.509" style="stroke: #A80036; stroke-width: 1.0;"/><path d="M951.393,197.013 C987.302,246.653 1045.76,327.463 1074.28,366.891 " fill="none" style="stroke: #A80036; stroke-width: 1.0;"/><path d="M915.592,202.071 C910.172,249.24 901.996,320.407 897.417,360.259 " fill="none" style="stroke: #A80036; stroke-width: 1.0;"/><polygon fill="#A80036" points="916.173,197.013,911.173,205.4983,915.603,201.9804,919.1209,206.4103,916.173,197.013" style="stroke: #A80036; stroke-width: 1.0;"/><path d="M900,665.623 C900,689.491 900,722.589 900,744.618 " fill="none" style="stroke: #A80036; stroke-width: 1.0;"/><path d="M861.335,669.463 C846.331,684.959 830.883,704.661 823,726 C809.755,761.854 814.218,774.8 823,812 C840.155,884.67 883.303,960.476 912.388,1005.9638 " fill="none" style="stroke: #A80036; stroke-width: 1.0;"/><polygon fill="#A80036" points="865.135,665.615,855.9649,669.208,861.6217,669.1726,861.6571,674.8294,865.135,665.615" style="stroke: #A80036; stroke-width: 1.0;"/><path d="M1010.49,663.53 C1014.7,664.396 1018.89,665.223 1023,666 C1121.05,684.514 1395.13,657.828 1468,726 C1507.67,763.118 1511.15,830.222 1508.89,871.757 " fill="none" style="stroke: #A80036; stroke-width: 1.0;"/><polygon fill="#A80036" points="1005.519,662.496,1013.5204,668.2387,1010.415,663.5104,1015.1433,660.405,1005.519,662.496" style="stroke: #A80036; stroke-width: 1.0;"/><path d="M1009.6,666.955 C1069.03,683.956 1143.68,705.666 1210,726 C1216.24,727.912 1222.63,729.898 1229.08,731.92 " fill="none" style="stroke: #A80036; stroke-width: 1.0;"/><polygon fill="#A80036" points="1004.626,665.532,1012.1833,671.8476,1009.4342,666.9037,1014.3781,664.1546,1004.626,665.532" style="stroke: #A80036; stroke-width: 1.0;"/><path d="M947.892,668.586 C972.055,685.027 1001.74,705.225 1028.03,723.111 " fill="none" style="stroke: #A80036; stroke-width: 1.0;"/><polygon fill="#A80036" points="1032.22,725.961,1027.031,717.59,1028.0867,723.1474,1022.5293,724.2032,1032.22,725.961" style="stroke: #A80036; stroke-width: 1.0;"/><polygon fill="#A80036" points="943.537,665.623,948.728,673.9928,947.6709,668.4356,953.2281,667.3786,943.537,665.623" style="stroke: #A80036; stroke-width: 1.0;"/><path d="M837.553,667.949 C801.311,686.492 755.417,709.973 717.198,729.526 " fill="none" style="stroke: #A80036; stroke-width: 1.0;"/><polygon fill="#A80036" points="712.577,731.891,722.4111,731.352,717.0281,729.6133,718.7668,724.2303,712.577,731.891" style="stroke: #A80036; stroke-width: 1.0;"/><polygon fill="#A80036" points="842.1,665.623,832.266,666.1632,837.6492,667.9012,835.9112,673.2845,842.1,665.623" style="stroke: #A80036; stroke-width: 1.0;"/><path d="M304.208,184.763 C283.825,232.189 244.399,323.922 225.961,366.824 " fill="none" style="stroke: #A80036; stroke-width: 1.0;"/><path d="M354.599,188.307 C393.777,221.319 458.242,271.029 522,300 C606.843,338.552 710.376,361.875 786.655,375.085 " fill="none" style="stroke: #A80036; stroke-width: 1.0;"/><polygon fill="#A80036" points="350.419,184.766,354.702,193.6348,354.2346,187.9973,359.8721,187.5299,350.419,184.766" style="stroke: #A80036; stroke-width: 1.0;"/><path d="M314.524,189.701 C310.368,241.022 300.462,339.94 281,422 C276.118,442.582 268.368,465.082 261.839,482.437 " fill="none" style="stroke: #A80036; stroke-width: 1.0;"/><polygon fill="#A80036" points="314.932,184.584,310.2298,193.2379,314.5349,189.5682,318.2045,193.8733,314.932,184.584" style="stroke: #A80036; stroke-width: 1.0;"/><path d="M639.635,806.258 C638.01,831.173 635.902,863.504 634.503,884.96 " fill="none" style="stroke: #A80036; stroke-width: 1.0;"/><path d="M662.767,810.858 C683.809,849.27 719.295,906.601 762,946 C794.466,975.953 837.267,1000.7449 872.874,1018.384 " fill="none" style="stroke: #A80036; stroke-width: 1.0;"/><polygon fill="#A80036" points="660.273,806.27,661.0581,816.0875,662.6615,810.6626,668.0863,812.266,660.273,806.27" style="stroke: #A80036; stroke-width: 1.0;"/><path d="M1218.55,184.763 C1224.2,232.189 1235.13,323.922 1240.24,366.824 " fill="none" style="stroke: #A80036; stroke-width: 1.0;"/><path d="M1191.26,188.827 C1167.52,220.735 1128.51,268.278 1086,300 C1052.66,324.877 1011.34,345.328 975.588,360.413 " fill="none" style="stroke: #A80036; stroke-width: 1.0;"/><polygon fill="#A80036" points="1194.37,184.626,1185.8004,189.48,1191.3952,188.6448,1192.2305,194.2397,1194.37,184.626" style="stroke: #A80036; stroke-width: 1.0;"/><path d="M201.064,543.509 C166.655,564.258 121.257,591.634 89.4397,610.82 " fill="none" style="stroke: #A80036; stroke-width: 1.0;"/><path d="M230.225,543.663 C216.436,564.346 198.297,591.555 185.542,610.687 " fill="none" style="stroke: #A80036; stroke-width: 1.0;"/><path d="M262.36,543.663 C270.977,564.346 282.315,591.555 290.286,610.687 " fill="none" style="stroke: #A80036; stroke-width: 1.0;"/><path d="M360.996,530.855 C467.529,547.545 632.778,574.776 775,604 C781.34,605.303 787.847,606.695 794.403,608.141 " fill="none" style="stroke: #A80036; stroke-width: 1.0;"/><polygon fill="#A80036" points="355.968,530.069,364.2416,535.412,360.9079,530.8418,365.4781,527.5082,355.968,530.069" style="stroke: #A80036; stroke-width: 1.0;"/><path d="M1464,184.763 C1464,232.189 1464,323.922 1464,366.824 " fill="none" style="stroke: #A80036; stroke-width: 1.0;"/><path d="M1444.66,189.202 C1423.67,222.99 1386.91,273.363 1341,300 C1215.09,373.06 1161.38,329.67 1019,360 C1013.22,361.232 1007.29,362.531 1001.313,363.869 " fill="none" style="stroke: #A80036; stroke-width: 1.0;"/><polygon fill="#A80036" points="1447.39,184.755,1439.269,190.3272,1444.7714,189.0145,1446.0841,194.5169,1447.39,184.755" style="stroke: #A80036; stroke-width: 1.0;"/><path d="M1044.12,543.663 C1051.88,564.346 1062.08,591.555 1069.26,610.687 " fill="none" style="stroke: #A80036; stroke-width: 1.0;"/><path d="M996.222,547.183 C976.406,565.062 952.157,586.941 932.959,604.262 " fill="none" style="stroke: #A80036; stroke-width: 1.0;"/><polygon fill="#A80036" points="1000.124,543.663,990.7623,546.7222,996.4117,547.0125,996.1215,552.6619,1000.124,543.663" style="stroke: #A80036; stroke-width: 1.0;"/><path d="M685.517,543.663 C684.483,564.346 683.122,591.555 682.166,610.687 " fill="none" style="stroke: #A80036; stroke-width: 1.0;"/><path d="M744.063,546.148 C776.209,564.259 816.077,586.72 847.455,604.397 " fill="none" style="stroke: #A80036; stroke-width: 1.0;"/><polygon fill="#A80036" points="739.378,543.509,745.2554,551.412,743.7341,545.9635,749.1825,544.4422,739.378,543.509" style="stroke: #A80036; stroke-width: 1.0;"/></g></svg>